<svg width="55" height="78" viewBox="0 0 55 78" fill="none" xmlns="http://www.w3.org/2000/svg">
<g clip-path="url(#clip0)">
<path d="M5.00621 71.4547L0 15.2725H55L49.9876 71.4454L27.4658 77.6924L5.00621 71.4547Z" fill="#1572B6"/>
<path d="M27.5 72.9185L45.6988 67.8681L49.9783 19.866H27.5V72.9185Z" fill="#33A9DC"/>
<path d="M27.5 40.2198H36.6118L37.2391 33.1648H27.5V26.2776H44.7671L44.6025 28.1268L42.9099 47.1163H27.5V40.2198Z" fill="white"/>
<path d="M27.5373 58.1155H27.5062L19.8385 56.0425L19.3478 50.5476H12.441L13.4068 61.3664L27.5124 65.2948H27.5528V58.1155H27.5373Z" fill="#EBEBEB"/>
<path d="M36.0279 46.8149L35.1988 56.0361L27.5186 58.1091V65.2885L41.6335 61.3725L41.736 60.207L42.9348 46.8118H36.0279V46.8149Z" fill="white"/>
<path d="M27.5248 26.2776V33.1679H10.8975L10.7547 31.6201L10.441 28.1268L10.2764 26.2776H27.5248ZM27.5 40.2198V47.1101H19.9193L19.7857 45.5623L19.472 42.069L19.3075 40.2198H27.4969H27.5Z" fill="#EBEBEB"/>
</g>
<defs>
<clipPath id="clip0">
<rect width="55" height="77.6923" fill="white"/>
</clipPath>
</defs>
</svg>
