<svg width="70" height="56" viewBox="0 0 70 56" fill="none" xmlns="http://www.w3.org/2000/svg">
<g clip-path="url(#clip0)">
<path fill-rule="evenodd" clip-rule="evenodd" d="M14.5392 0.00683594C10.5451 0.00683594 7.58967 3.5019 7.72201 7.29221C7.84902 10.9337 7.684 15.6499 6.49646 19.496C5.30469 23.3528 3.29055 25.7969 0 26.1106V29.6524C3.29055 29.9668 5.30469 32.4097 6.49633 36.2671C7.684 40.1132 7.84889 44.8294 7.72187 48.4708C7.58953 52.2606 10.545 55.7562 14.5398 55.7562H55.4661C59.4602 55.7562 62.4151 52.2611 62.2828 48.4708C62.1558 44.8294 62.3208 40.1132 63.5083 36.2671C64.7001 32.4097 66.7093 29.9659 70 29.6524V26.1106C66.7094 25.7962 64.7002 23.3534 63.5083 19.496C62.3206 15.6504 62.1558 10.9337 62.2828 7.29221C62.4151 3.50245 59.4602 0.00683594 55.4661 0.00683594H14.5387H14.5392ZM47.4577 34.3242C47.4577 39.5433 43.5638 42.7086 37.1018 42.7086H26.1017C25.787 42.7086 25.4852 42.5836 25.2627 42.3611C25.0402 42.1387 24.9152 41.837 24.9152 41.5224V14.2408C24.9152 13.9262 25.0402 13.6245 25.2627 13.402C25.4852 13.1796 25.787 13.0546 26.1017 13.0546H37.0392C42.4274 13.0546 45.9636 15.9726 45.9636 20.4526C45.9636 23.5971 43.5847 26.4121 40.5541 26.9053V27.0693C44.6797 27.5218 47.4577 30.3785 47.4577 34.3242ZM35.9023 16.8147H29.6302V25.672H34.9129C38.9967 25.672 41.2485 24.0279 41.2485 21.0893C41.248 18.3354 39.3121 16.8147 35.9023 16.8147ZM29.6302 29.1863V38.9472H36.1331C40.3851 38.9472 42.6372 37.2415 42.6372 34.036C42.6372 30.8304 40.3219 29.1858 35.8597 29.1858H29.6302V29.1863Z" fill="#7952B3"/>
</g>
<defs>
<clipPath id="clip0">
<rect width="70" height="55.7627" fill="white"/>
</clipPath>
</defs>
</svg>
