<svg width="55" height="78" viewBox="0 0 55 78" fill="none" xmlns="http://www.w3.org/2000/svg">
<g clip-path="url(#clip0)">
<path d="M5.00525 71.4722L0 15.2754H55L49.9893 71.4633L27.4662 77.7138L5.00525 71.4722Z" fill="#E44D26"/>
<path d="M27.5 72.9364L45.6995 67.8854L49.9817 19.8706H27.5V72.9364Z" fill="#F16529"/>
<path d="M27.5 40.7129H18.389L17.7596 33.6551H27.5V26.7627H10.2345L10.3995 28.6118L12.0917 47.605H27.5V40.7129ZM27.5 58.6128L27.4697 58.621L19.8015 56.5482L19.3112 51.0515H12.3995L13.3642 61.8734L27.4685 65.7927L27.5 65.7838V58.6128Z" fill="#EBEBEB"/>
<path d="M27.4763 40.7129V47.605H35.955L35.1556 56.544L27.4763 58.6185V65.7891L41.5918 61.8734L41.695 60.7086L43.3133 42.5637L43.4813 40.7129H41.626H27.4763ZM27.4763 26.7627V33.6551H44.1079L44.2458 32.1058L44.5595 28.6118L44.7243 26.7627H27.4763Z" fill="white"/>
</g>
<defs>
<clipPath id="clip0">
<rect width="55" height="77.7174" fill="white"/>
</clipPath>
</defs>
</svg>
