<svg width="70" height="53" viewBox="0 0 70 53" fill="none" xmlns="http://www.w3.org/2000/svg">
<g clip-path="url(#clip0)">
<path d="M60.2383 30.1927C57.791 30.2065 55.6719 30.7949 53.8945 31.671C53.2383 30.3708 52.582 29.2346 52.4728 28.3862C52.3497 27.4008 52.1993 26.7984 52.3497 25.6215C52.5 24.4443 53.1836 22.7746 53.1836 22.6377C53.1698 22.5145 53.0331 21.9123 51.625 21.8986C50.2169 21.8849 49 22.1723 48.8633 22.5419C48.7266 22.9114 48.4531 23.76 48.2754 24.6359C48.0293 25.9225 45.459 30.4801 43.9961 32.8753C43.5176 31.9446 43.1074 31.1234 43.0252 30.4663C42.9023 29.481 42.7518 28.8787 42.9023 27.7017C43.0527 26.5246 43.7363 24.8549 43.7363 24.7181C43.7226 24.5949 43.5859 23.9927 42.1779 23.979C40.7695 23.9653 39.5529 24.2527 39.4161 24.6223C39.2794 24.9918 39.129 25.8677 38.8283 26.7163C38.541 27.5649 35.123 35.1746 34.2344 37.1592C33.7832 38.172 33.3869 38.9795 33.0996 39.527C32.8125 40.0745 33.0859 39.568 33.0586 39.6228C32.8125 40.0881 32.6758 40.3482 32.6758 40.3482V40.362C32.4844 40.7042 32.2793 41.0325 32.1835 41.0325C32.1151 41.0325 31.9784 40.1155 32.2108 38.8565C32.7167 36.2148 33.9471 32.0953 33.9336 31.9447C33.9336 31.8763 34.1659 31.1508 33.1405 30.7814C32.1424 30.4118 31.7871 31.0277 31.7049 31.0277C31.6229 31.0277 31.5545 31.2467 31.5545 31.2467C31.5545 31.2467 32.662 26.6071 29.4354 26.6071C27.412 26.6071 24.6229 28.8106 23.242 30.8226C22.367 31.3016 20.5077 32.3143 18.5389 33.3957C17.787 33.8063 17.0077 34.2442 16.2694 34.6411L16.1191 34.4766C12.209 30.3022 4.97657 27.3459 5.27735 21.7344C5.38672 19.6951 6.09766 14.3162 19.1681 7.8014C29.8732 2.46362 38.4454 3.92809 39.9355 7.1855C42.0547 11.839 35.3555 20.4889 24.2267 21.7344C19.9884 22.2134 17.7598 20.571 17.1994 19.9551C16.6115 19.3118 16.5294 19.2845 16.3107 19.4077C15.9552 19.5993 16.174 20.1741 16.3107 20.5163C16.6388 21.3785 18.006 22.9114 20.3302 23.6779C22.3672 24.3485 27.3439 24.7181 33.3595 22.3913C40.0997 19.7772 45.3634 12.5233 43.8185 6.46011C42.2462 0.287447 32.0197 -1.73817 22.3537 1.69717C16.5977 3.75016 10.3633 6.95283 5.87891 11.1546C0.54688 16.1366 -0.300776 20.4889 0.0546929 22.2955C1.29897 28.7419 10.1719 32.9437 13.7266 36.0506C13.5488 36.1463 13.3848 36.2421 13.2344 36.3243C11.457 37.2001 4.68946 40.7451 2.99415 44.4951C1.08008 48.7379 3.29493 51.7902 4.77149 52.2008C9.33789 53.4737 14.0137 51.188 16.543 47.4242C19.0585 43.6603 18.7578 38.7742 17.5957 36.5433L17.5546 36.4612L18.9491 35.64C19.8516 35.1062 20.7402 34.6135 21.5194 34.1891C21.082 35.3798 20.7674 36.7895 20.6035 38.8425C20.4121 41.2515 21.3965 44.3719 22.6953 45.6037C23.2695 46.1374 23.9531 46.1512 24.377 46.1512C25.8809 46.1512 26.5644 44.9056 27.3164 43.4138C28.2461 41.5935 29.0664 39.4858 29.0664 39.4858C29.0664 39.4858 28.041 45.1931 30.8437 45.1931C31.8691 45.1931 32.8945 43.8655 33.3594 43.1812V43.1949C33.3594 43.1949 33.3867 43.1538 33.4414 43.058C33.4988 42.9731 33.5535 42.8864 33.6055 42.7981V42.7707C34.0156 42.059 34.9316 40.4303 36.2988 37.734C38.0624 34.2576 39.7578 29.9053 39.7578 29.9053C39.7578 29.9053 39.9219 30.9728 40.4277 32.7247C40.7284 33.7651 41.3846 34.9009 41.8905 36.0095C41.4803 36.5844 41.2342 36.913 41.2342 36.913L41.2479 36.9267C40.9199 37.3646 40.5506 37.8301 40.168 38.2953C38.7734 39.9651 37.1055 41.8677 36.8867 42.4151C36.6269 43.0583 36.6816 43.5373 37.1875 43.9207C37.5566 44.1944 38.2129 44.249 38.9101 44.1944C40.168 44.1121 41.043 43.7975 41.4805 43.6057C42.1641 43.3594 42.9434 42.9898 43.6953 42.4424C45.0625 41.4297 45.8965 39.9926 45.8144 38.0765C45.7734 37.0226 45.4316 35.9824 45.0078 34.997C45.1309 34.8191 45.254 34.641 45.3769 34.4495C47.5371 31.2878 49.2051 27.8115 49.2051 27.8115C49.2051 27.8115 49.3691 28.8791 49.875 30.631C50.1346 31.5206 50.6543 32.4925 51.1191 33.4505C49.0957 35.1066 47.8242 37.0227 47.3867 38.2819C46.5801 40.6086 47.209 41.6625 48.3984 41.9089C48.9315 42.0184 49.6973 41.772 50.2713 41.5256C50.9823 41.293 51.8436 40.8959 52.6367 40.3075C54.0039 39.2947 55.3164 37.885 55.248 35.9826C55.207 35.1066 54.9746 34.2444 54.6601 33.4232C56.3828 32.7115 58.6112 32.3009 61.4414 32.643C67.5254 33.3547 68.7285 37.1596 68.4962 38.7473C68.2638 40.335 66.9923 41.2108 66.5683 41.4846C66.1445 41.7446 66.0078 41.8406 66.0488 42.032C66.1035 42.3196 66.2949 42.3058 66.664 42.2512C67.1699 42.1689 69.8633 40.9509 69.9726 38.0221C70.1367 34.2578 66.5683 30.1518 60.2383 30.1927ZM13.3164 46.0281C11.3066 48.2317 8.47657 49.0666 7.27344 48.3549C5.97461 47.6021 6.48033 44.3584 8.95508 42.018C10.459 40.5945 12.4141 39.2806 13.6992 38.4731C13.9863 38.2952 14.4238 38.0353 14.9434 37.7204C15.0254 37.6657 15.0801 37.6382 15.0801 37.6382C15.1758 37.5835 15.2852 37.5151 15.3945 37.4466C16.3105 40.7862 15.4355 43.7151 13.3164 46.0281ZM28.0137 36.0232C27.3164 37.734 25.8398 42.1274 24.9512 41.8811C24.1854 41.6758 23.7207 38.3499 24.8006 35.0651C25.3475 33.4089 26.5096 31.4382 27.1932 30.6716C28.3008 29.4398 29.5038 29.0292 29.8047 29.5356C30.1602 30.1927 28.4512 34.9557 28.0137 36.0232ZM40.1406 41.8263C39.8398 41.977 39.5664 42.0864 39.4434 42.0044C39.3476 41.9497 39.5663 41.7444 39.5663 41.7444C39.5663 41.7444 41.0838 40.1157 41.6854 39.3629C42.0272 38.9251 42.4374 38.4186 42.8749 37.8437V38.0079C42.875 39.9786 40.9883 41.2926 40.1406 41.8263ZM49.492 39.6912C49.2733 39.527 49.3008 39.0206 50.0389 37.4329C50.3262 36.8033 50.9823 35.7495 52.117 34.7504C52.2538 35.161 52.3359 35.5577 52.3221 35.9274C52.3086 38.391 50.5586 39.308 49.492 39.6912Z" fill="#CF649A"/>
</g>
<defs>
<clipPath id="clip0">
<rect width="70" height="52.5566" fill="white"/>
</clipPath>
</defs>
</svg>
